<?xml version="1.0" standalone="no"?>
<!DOCTYPE svg PUBLIC "-//W3C//DTD SVG 20010904//EN"
 "http://www.w3.org/TR/2001/REC-SVG-20010904/DTD/svg10.dtd">
<svg version="1.0" xmlns="http://www.w3.org/2000/svg"
 width="500.000000pt" height="500.000000pt" viewBox="0 0 500.000000 500.000000"
 preserveAspectRatio="xMidYMid meet">
<metadata>
Created by potrace 1.14, written by Peter Selinger 2001-2017
</metadata>
<g transform="translate(0.000000,500.000000) scale(0.100000,-0.100000)"
fill="#000000" stroke="none">
<path d="M2830 4284 c0 -9 -5 -12 -12 -8 -7 5 -8 3 -3 -6 5 -8 8 -33 6 -57 -2
-41 -1 -43 26 -42 15 0 23 3 17 5 -10 4 -10 57 0 107 3 11 -2 17 -15 17 -11 0
-19 -7 -19 -16z"/>
<path d="M2491 4274 c-31 -22 -29 -81 4 -96 19 -8 28 -8 40 2 21 18 19 29 -5
23 -11 -3 -20 -1 -21 3 0 5 -2 21 -4 36 -2 15 1 30 6 33 8 6 13 -8 10 -27 0
-5 8 -8 19 -8 17 0 19 3 11 19 -15 27 -35 32 -60 15z"/>
<path d="M2635 4234 c0 -47 3 -54 20 -54 17 0 20 6 19 43 -3 63 -3 63 -22 64
-15 1 -18 -7 -17 -53z"/>
<path d="M2689 4276 c6 -7 10 -32 8 -55 -3 -36 -1 -41 18 -41 18 0 21 5 19 44
-2 54 -9 66 -36 66 -16 0 -18 -3 -9 -14z"/>
<path d="M2174 4274 c-8 -4 -6 -23 7 -65 23 -73 23 -79 5 -79 -15 0 -31 63
-21 80 7 12 -5 13 -21 2 -27 -17 -16 -87 14 -96 9 -3 33 0 54 7 29 10 34 16
27 29 -5 9 -15 40 -22 69 -14 52 -21 62 -43 53z"/>
<path d="M2370 4248 c0 -19 2 -20 10 -8 13 19 13 30 0 30 -5 0 -10 -10 -10
-22z"/>
<path d="M2308 4253 c-14 -4 -13 -10 10 -48 24 -40 52 -59 52 -36 0 5 3 17 7
27 4 11 3 15 -4 11 -7 -4 -17 6 -25 23 -7 16 -15 29 -18 29 -3 -1 -13 -3 -22
-6z"/>
<path d="M2946 4213 c-3 -26 -3 -50 1 -54 5 -4 26 -10 48 -13 39 -7 41 -6 44
21 7 70 6 76 -11 78 -12 2 -18 -4 -19 -18 -2 -53 -11 -73 -28 -63 -6 4 -6 16
1 36 12 34 5 60 -15 60 -9 0 -17 -17 -21 -47z"/>
<path d="M3134 4211 c3 -5 -1 -27 -9 -50 -7 -22 -11 -42 -7 -44 20 -11 42 -16
38 -8 -7 10 12 79 23 86 5 2 8 -3 7 -12 -1 -21 20 -28 27 -9 7 17 -11 29 -56
40 -17 4 -26 3 -23 -3z"/>
<path d="M2000 4164 c0 -3 4 -13 10 -23 7 -14 5 -23 -10 -36 -35 -32 -18 -61
25 -44 11 4 28 10 37 13 16 5 16 8 3 33 -8 15 -15 33 -15 39 0 7 -7 15 -16 18
-20 8 -34 8 -34 0z m30 -70 c0 -8 -4 -12 -10 -9 -5 3 -10 10 -10 16 0 5 5 9
10 9 6 0 10 -7 10 -16z"/>
<path d="M1971 4143 c-8 -17 -8 -22 4 -27 19 -7 28 10 17 31 -9 15 -11 14 -21
-4z"/>
<path d="M3280 4140 c-41 -41 -16 -99 37 -84 26 7 27 8 6 11 -25 5 -28 18 -13
58 12 31 31 25 23 -6 -4 -15 -2 -20 7 -17 21 7 23 24 5 42 -22 21 -41 20 -65
-4z"/>
<path d="M3422 4065 c-33 -42 2 -101 46 -76 16 10 16 10 0 11 -9 0 -19 4 -23
9 -6 11 15 61 27 61 4 0 8 5 8 10 0 20 -39 10 -58 -15z"/>
<path d="M3480 4064 c-9 -10 -10 -18 -2 -26 12 -12 32 -2 32 17 0 21 -16 26
-30 9z"/>
<path d="M1772 4051 c-11 -6 -10 -10 0 -19 11 -8 14 -7 14 9 0 10 0 19 -1 19
0 0 -6 -4 -13 -9z"/>
<path d="M1890 4026 c0 -8 4 -17 9 -20 11 -7 33 18 24 27 -12 12 -33 7 -33 -7z"/>
<path d="M1723 4015 c-7 -19 54 -75 73 -68 20 7 4 37 -32 61 -30 20 -35 20
-41 7z"/>
<path d="M3570 3997 c0 -8 3 -16 6 -20 9 -9 35 4 28 14 -3 5 0 9 5 9 16 0 14
-6 -14 -49 -21 -34 -22 -41 -9 -52 17 -14 16 -15 43 35 19 37 19 41 4 58 -19
21 -63 24 -63 5z"/>
<path d="M1667 3988 c-14 -12 -11 -17 29 -47 24 -19 47 -31 50 -28 10 10 -6
58 -16 52 -5 -3 -15 3 -22 15 -15 23 -19 24 -41 8z"/>
<path d="M3540 3955 c-6 -8 -9 -19 -5 -25 9 -15 35 -12 35 5 0 8 5 15 11 15 5
0 7 5 4 10 -9 14 -31 12 -45 -5z"/>
<path d="M3750 3960 c0 -12 -53 -86 -76 -106 -10 -8 -9 -13 6 -21 15 -10 24
-4 65 49 25 33 45 61 43 62 -2 1 -11 8 -20 15 -14 10 -18 10 -18 1z"/>
<path d="M2375 3929 c-124 -20 -150 -27 -250 -62 -236 -82 -473 -259 -624
-465 -34 -46 -61 -88 -61 -92 0 -8 84 -62 146 -93 l31 -16 39 57 c21 31 81
100 134 151 l95 95 6 -90 c5 -61 16 -116 37 -174 26 -73 88 -218 97 -228 5 -5
159 -62 161 -59 1 1 9 17 18 35 28 55 55 60 120 23 31 -17 63 -31 72 -31 33 0
89 36 161 103 85 79 113 93 203 102 122 12 153 39 165 140 8 71 15 86 68 143
39 43 39 45 35 108 -5 76 -5 76 107 11 121 -70 281 -207 331 -282 15 -23 14
-26 -9 -57 -33 -44 -56 -126 -52 -185 2 -29 18 -78 40 -123 29 -61 35 -82 30
-113 -5 -34 -3 -38 12 -33 10 3 50 8 88 11 58 5 201 30 293 50 28 7 28 22 -3
130 -64 218 -211 460 -367 600 -121 108 -312 227 -448 278 -208 77 -454 102
-675 66z"/>
<path d="M1580 3925 c-10 -12 -10 -15 2 -15 8 0 15 7 15 15 0 8 -1 15 -2 15
-2 0 -8 -7 -15 -15z"/>
<path d="M1540 3888 c0 -19 11 -31 47 -51 47 -26 55 -2 12 34 -36 30 -59 37
-59 17z"/>
<path d="M3810 3820 l-55 -58 23 -16 c17 -13 22 -14 22 -3 0 7 16 29 36 48 46
44 57 64 41 77 -9 7 -27 -6 -67 -48z"/>
<path d="M1484 3849 c-10 -11 -12 -19 -5 -19 6 0 29 -11 51 -25 38 -24 56 -21
45 7 -3 7 -21 23 -39 35 -34 22 -34 22 -52 2z"/>
<path d="M1406 3781 c-3 -5 1 -11 9 -15 8 -3 15 -1 15 4 0 13 -18 22 -24 11z"/>
<path d="M1370 3742 c0 -11 29 -49 30 -39 0 4 13 1 29 -8 33 -17 50 -5 27 18
-8 8 -13 17 -10 20 3 3 0 8 -7 13 -8 4 -10 3 -5 -4 4 -7 3 -12 -3 -12 -5 0
-13 5 -16 10 -7 12 -45 14 -45 2z"/>
<path d="M3880 3720 c-26 -26 -25 -55 2 -74 26 -19 47 -10 21 9 -17 13 -17 15
9 41 15 16 31 25 35 21 3 -4 1 -13 -5 -19 -16 -16 -15 -28 2 -28 25 0 29 34 6
52 -29 23 -45 23 -70 -2z"/>
<path d="M1326 3694 c-4 -11 6 -21 39 -35 25 -11 50 -17 55 -14 14 9 -11 45
-32 45 -9 0 -20 5 -23 10 -9 15 -32 12 -39 -6z"/>
<path d="M3986 3599 c-31 -24 -32 -38 -7 -68 11 -13 22 -28 25 -34 3 -8 7 -9
13 -2 4 6 32 28 61 50 28 21 52 42 52 46 0 11 -28 30 -32 22 -1 -4 -25 -25
-51 -47 -32 -26 -52 -35 -58 -29 -12 12 34 53 57 53 19 0 18 16 -2 24 -24 9
-29 8 -58 -15z"/>
<path d="M1289 3466 c-57 -18 -85 -42 -109 -91 -44 -92 -5 -189 134 -329 138
-140 205 -192 404 -317 201 -127 428 -231 637 -291 97 -28 440 -99 540 -112
56 -8 279 -44 310 -51 17 -3 36 16 96 98 42 56 79 108 83 114 7 12 -7 40 -87
176 l-39 67 -102 1 c-168 1 -353 15 -456 34 -14 3 -45 8 -70 11 -72 10 -335
79 -467 123 -228 76 -524 217 -730 346 -118 74 -130 84 -148 128 l-16 39 36
34 c39 37 38 38 -16 20z"/>
<path d="M4060 3426 c0 -18 17 -29 30 -21 8 5 7 11 -1 21 -15 18 -29 18 -29 0z"/>
<path d="M4167 3331 c-24 -43 -28 -81 -8 -81 12 0 60 102 54 116 -9 23 -16 17
-46 -35z"/>
<path d="M4116 3325 c7 -17 20 -20 28 -6 3 5 -1 12 -10 15 -22 9 -24 8 -18 -9z"/>
<path d="M4216 3311 c-3 -5 3 -11 13 -14 14 -3 18 -1 14 9 -6 16 -19 18 -27 5z"/>
<path d="M4250 3202 c-12 -15 -31 -37 -42 -48 l-19 -22 40 1 c23 1 37 3 32 6
-5 4 -1 16 9 28 9 12 20 20 23 17 3 -3 3 4 0 15 -8 32 -18 33 -43 3z"/>
<path d="M1016 3203 c-3 -8 -2 -12 2 -9 4 2 32 -20 62 -50 46 -47 51 -55 30
-50 -68 16 -116 26 -121 26 -4 0 -9 -10 -11 -22 -4 -20 0 -23 26 -24 39 -1
127 -14 137 -19 4 -3 9 1 12 8 3 7 -26 45 -64 83 -46 48 -70 66 -73 57z"/>
<path d="M4160 3165 c0 -8 7 -15 15 -15 8 0 15 7 15 15 0 8 -7 15 -15 15 -8 0
-15 -7 -15 -15z"/>
<path d="M4297 3156 c-3 -8 0 -17 7 -19 10 -4 12 1 9 14 -6 23 -9 24 -16 5z"/>
<path d="M3995 3062 c-31 -6 -45 -22 -45 -51 0 -14 25 -114 55 -221 30 -107
51 -198 47 -201 -4 -4 -47 -10 -97 -14 -49 -3 -112 -8 -140 -11 -27 -2 -81 -7
-120 -10 -38 -3 -75 -7 -81 -9 -6 -1 -32 32 -58 76 -26 43 -57 85 -69 94 -28
20 -117 21 -117 1 0 -8 23 -62 51 -120 28 -59 48 -113 45 -121 -3 -8 -32 -55
-66 -104 -65 -98 -72 -121 -37 -122 12 0 36 -2 54 -4 35 -4 64 20 126 102 35
46 40 48 118 33 30 -6 68 -13 84 -16 17 -3 62 -11 100 -19 39 -8 81 -16 95
-19 50 -9 80 -18 80 -26 0 -5 -15 -41 -34 -82 -19 -40 -64 -142 -101 -227 -63
-144 -67 -157 -54 -180 17 -30 58 -43 86 -27 19 10 130 105 172 146 9 9 52 47
96 85 44 39 84 75 90 81 5 6 53 50 106 97 l96 86 59 -3 c113 -5 244 55 244
112 -1 63 -120 137 -230 144 -19 1 -42 5 -50 9 -8 4 -109 120 -225 257 -124
148 -220 254 -235 259 -14 5 -34 7 -45 5z m646 -592 c72 -37 74 -106 4 -136
-19 -7 -41 -14 -50 -14 -14 0 -14 3 0 30 17 33 19 77 5 114 -12 31 -10 31 41
6z"/>
<path d="M4320 3053 c8 -3 18 -11 22 -17 5 -7 8 -4 8 7 0 11 -7 17 -22 16 -16
0 -18 -2 -8 -6z"/>
<path d="M4245 3030 c-10 -16 18 -33 64 -37 41 -3 51 -1 51 11 0 9 -10 18 -22
20 -46 10 -89 12 -93 6z"/>
<path d="M957 2999 c-12 -7 -14 -16 -7 -39 7 -23 5 -30 -6 -30 -8 0 -14 -7
-14 -15 0 -8 7 -15 16 -15 9 0 46 -13 84 -30 38 -16 70 -30 73 -30 2 0 5 11 5
24 0 18 -5 22 -19 19 -11 -3 -19 -1 -19 4 0 5 -20 15 -45 22 -39 11 -65 34
-65 55 0 18 55 2 81 -23 35 -35 37 -29 7 16 -26 37 -66 56 -91 42z"/>
<path d="M1277 2927 c-30 -119 -40 -196 -40 -332 0 -278 77 -524 240 -767 106
-158 318 -338 510 -432 196 -96 359 -134 581 -133 288 0 538 77 771 237 94 64
213 174 277 255 21 28 41 52 44 55 10 9 100 153 97 156 -2 2 -82 10 -187 19
-144 13 -193 19 -290 35 -30 5 -69 12 -86 14 -63 11 -301 67 -347 82 -26 9
-54 13 -62 11 -20 -8 -33 -85 -21 -125 9 -32 24 -51 80 -101 14 -13 26 -34 26
-47 0 -58 -96 -223 -190 -328 l-53 -58 -96 6 c-122 7 -160 13 -246 36 -160 43
-352 146 -458 245 -31 29 -36 39 -27 51 25 30 82 56 141 64 84 12 92 21 85 91
-11 118 23 164 144 194 36 9 193 62 218 73 41 20 41 33 0 51 -163 69 -438 216
-605 324 l-72 46 -30 -47 c-39 -61 -55 -129 -48 -199 6 -53 22 -93 77 -188 28
-49 22 -91 -14 -105 -32 -12 -35 -18 -40 -84 -2 -32 -6 -60 -9 -62 -6 -6 -54
73 -91 150 -76 158 -109 315 -108 501 1 87 3 108 16 185 5 32 2 38 -42 74 -26
21 -66 55 -88 76 l-41 39 -16 -62z"/>
<path d="M4260 2969 c0 -11 27 -12 34 -1 2 4 -4 9 -15 9 -10 1 -19 -2 -19 -8z"/>
<path d="M1027 2803 c-4 -6 -26 -9 -51 -8 -77 4 -77 -9 -3 -72 40 -35 67 -42
67 -18 0 10 -10 15 -28 15 -17 0 -37 9 -50 23 l-21 22 49 -1 c36 -1 50 3 55
14 6 17 -9 39 -18 25z"/>
<path d="M933 2650 c-30 -12 -34 -52 -9 -78 10 -10 12 -7 8 18 -4 29 -3 30 31
30 34 0 67 -20 67 -41 0 -17 -32 -9 -51 14 l-20 22 16 -33 c20 -41 58 -42 63
-2 5 45 -60 88 -105 70z"/>
<path d="M910 2484 c0 -8 1 -14 3 -15 1 0 22 -3 47 -6 85 -10 98 -47 15 -40
-47 4 -55 2 -55 -13 0 -10 8 -24 17 -31 13 -11 15 -11 9 -1 -7 11 3 13 45 11
45 -3 54 0 57 15 2 10 -1 23 -7 29 -14 14 -14 30 -1 22 6 -4 7 2 2 15 -7 18
-18 22 -70 25 -49 3 -62 1 -62 -11z"/>
<path d="M940 2294 c0 -12 7 -25 16 -28 8 -3 12 -2 9 4 -7 11 5 13 89 11 59 0
60 0 35 17 -16 12 -44 17 -86 17 -58 0 -63 -2 -63 -21z"/>
<path d="M1066 2211 c-4 -6 -19 -10 -34 -9 -63 4 -89 -28 -47 -58 15 -11 16
-17 7 -26 -16 -16 5 -43 23 -28 6 5 33 11 58 12 35 2 46 7 42 16 -3 8 -5 15
-5 18 0 2 -20 1 -45 -3 -29 -4 -50 -1 -60 7 -27 22 -16 30 40 30 58 0 63 5 42
35 -10 12 -16 15 -21 6z"/>
<path d="M1118 2045 c-3 -3 -25 -9 -49 -13 -52 -9 -64 -39 -14 -34 17 1 39 3
49 3 11 0 28 5 38 10 15 8 17 13 7 25 -12 15 -22 18 -31 9z"/>
<path d="M1146 1985 c-6 -17 9 -29 24 -20 14 9 12 22 -4 28 -8 3 -17 -1 -20
-8z"/>
<path d="M1112 1894 c-12 -8 -22 -24 -22 -34 0 -10 10 -26 22 -34 29 -21 44
-21 24 0 -26 25 -19 40 24 54 31 10 43 11 52 2 9 -9 9 -15 0 -24 -9 -9 -18 -9
-39 0 l-28 12 24 -20 c26 -23 57 -26 64 -7 5 14 -11 48 -27 59 -19 13 -71 9
-94 -8z"/>
<path d="M3765 1760 c-9 -14 13 -43 51 -68 40 -26 41 -25 12 25 -29 51 -50 65
-63 43z"/>
<path d="M1285 1720 c-44 -17 -65 -73 -40 -105 11 -15 13 -15 9 -3 -9 26 13
56 56 78 49 25 72 25 94 1 14 -16 15 -23 6 -41 -10 -18 -9 -21 2 -18 26 9 20
45 -12 72 -32 27 -75 33 -115 16z"/>
<path d="M3702 1675 c-10 -21 -9 -25 4 -25 11 0 15 -6 11 -19 -3 -13 0 -18 7
-15 7 3 24 -12 38 -32 26 -36 27 -64 3 -64 -14 0 -48 47 -48 68 0 7 -4 9 -8 5
-14 -14 10 -81 33 -97 25 -18 48 -5 48 26 0 10 4 17 9 13 11 -6 41 21 41 38 0
8 -4 7 -9 -2 -7 -11 -22 3 -61 57 -29 40 -53 72 -55 72 -1 0 -7 -11 -13 -25z"/>
<path d="M3864 1649 c-10 -17 13 -36 27 -22 12 12 4 33 -11 33 -5 0 -12 -5
-16 -11z"/>
<path d="M1270 1580 c18 -12 50 -13 50 -2 0 4 -15 8 -33 9 -23 2 -28 0 -17 -7z"/>
<path d="M1373 1545 c-39 -17 -46 -54 -12 -62 11 -3 25 -16 30 -29 4 -13 15
-24 23 -24 9 0 13 6 10 13 -3 9 12 23 39 37 39 21 43 26 34 42 -15 23 -35 30
-33 11 0 -8 -16 -24 -36 -36 -29 -17 -40 -19 -49 -10 -16 16 4 41 46 59 29 13
29 13 5 13 -14 0 -40 -6 -57 -14z"/>
<path d="M3605 1497 c-26 -41 3 -117 46 -117 25 0 49 27 48 53 -1 16 -3 17 -6
5 -5 -19 -27 -30 -47 -22 -12 5 -12 11 3 37 23 42 21 61 -6 65 -14 2 -27 -5
-38 -21z m45 -16 c0 -9 -5 -23 -10 -31 -9 -13 -11 -13 -20 0 -11 17 -13 44 -4
53 10 10 34 -5 34 -22z"/>
<path d="M1577 1486 c-3 -8 -31 -33 -61 -55 -37 -28 -53 -46 -50 -56 6 -16 34
-21 34 -6 0 4 30 31 67 59 56 43 63 52 47 58 -10 4 -22 9 -25 10 -4 2 -9 -2
-12 -10z"/>
<path d="M1606 1378 c-57 -56 -68 -88 -31 -88 9 0 14 4 10 9 -3 5 22 33 55 62
33 28 60 55 60 59 0 4 -8 9 -17 11 -11 3 -40 -18 -77 -53z"/>
<path d="M3522 1428 c-7 -7 -12 -19 -11 -27 0 -10 2 -11 5 -4 3 7 12 9 20 6 8
-3 14 1 14 10 0 21 -14 29 -28 15z"/>
<path d="M3482 1397 c-9 -10 -5 -25 14 -62 31 -61 42 -73 49 -53 5 13 -21 84
-43 116 -7 11 -11 10 -20 -1z"/>
<path d="M3384 1325 c-13 -13 -24 -33 -24 -44 0 -31 21 -70 41 -76 22 -7 56
13 63 38 4 18 4 18 -14 2 -11 -10 -26 -15 -35 -11 -15 5 -14 9 4 35 41 57 13
103 -35 56z m36 -14 c0 -25 -10 -51 -20 -51 -11 0 -20 39 -13 56 8 21 33 17
33 -5z"/>
<path d="M1695 1316 c-17 -7 -36 -25 -43 -40 -10 -23 -9 -29 8 -46 22 -22 45
-26 55 -10 4 6 1 9 -5 8 -17 -4 -39 33 -22 39 6 3 12 11 12 19 0 7 11 16 25
20 14 3 25 10 25 15 0 12 -19 11 -55 -5z"/>
<path d="M1764 1314 c8 -16 -30 -48 -45 -38 -8 4 -10 3 -5 -4 10 -16 51 -15
65 1 8 10 7 19 -5 33 -8 10 -13 14 -10 8z"/>
<path d="M1923 1273 c13 -13 -15 -33 -38 -27 -56 14 -139 -64 -99 -93 21 -15
34 -9 27 15 -5 22 33 72 56 72 32 0 31 -13 -6 -58 -35 -43 -36 -45 -17 -59 17
-12 19 -12 23 4 2 10 26 45 53 78 44 52 48 60 31 66 -23 10 -38 11 -30 2z"/>
<path d="M3283 1264 c-4 -10 -2 -19 5 -22 14 -4 16 -58 3 -67 -6 -3 -17 10
-27 30 -17 37 -41 47 -41 18 0 -10 -1 -34 -2 -53 l-1 -35 -26 43 c-25 42 -26
43 -46 25 -15 -13 -17 -19 -6 -21 7 -1 26 -24 42 -49 32 -53 46 -46 46 22 l0
40 24 -39 c23 -38 24 -39 35 -18 6 12 8 22 4 22 -4 0 -2 5 5 12 15 15 16 94 2
103 -6 3 -13 -2 -17 -11z"/>
<path d="M2174 1094 c-5 -47 -6 -88 -2 -90 4 -3 24 18 45 45 21 27 41 50 44
50 3 1 3 -23 1 -53 -2 -29 0 -56 5 -59 4 -2 25 21 46 52 28 41 31 47 9 22
l-29 -34 5 59 c3 32 9 62 14 65 6 4 -3 8 -19 11 -25 3 -29 1 -26 -16 2 -13
-10 -36 -31 -61 l-36 -40 5 30 c3 17 7 39 8 50 1 11 6 25 10 31 6 11 -12 24
-32 24 -4 0 -12 -39 -17 -86z"/>
<path d="M3066 1171 c-3 -5 1 -14 8 -20 16 -13 32 2 21 19 -8 12 -22 13 -29 1z"/>
<path d="M3032 1153 c-16 -28 -9 -44 29 -66 22 -12 29 -22 25 -34 -5 -13 -4
-14 9 -3 24 20 18 49 -15 68 -16 9 -31 26 -32 37 -3 19 -4 19 -16 -2z"/>
<path d="M2714 1134 c-5 -16 -19 -50 -32 -76 -2 -5 -1 -8 3 -8 3 0 11 12 17
28 11 26 12 24 27 -40 13 -58 19 -68 37 -68 22 0 22 1 7 48 -9 26 -18 61 -20
79 -6 41 -30 64 -39 37z"/>
<path d="M2361 1118 l-14 -23 24 20 c13 11 26 21 28 22 2 2 -2 3 -10 3 -8 0
-20 -10 -28 -22z"/>
<path d="M2915 1125 c-18 -13 -18 -14 -2 -15 14 0 17 -9 17 -55 0 -59 5 -64
36 -39 10 8 14 13 7 9 -8 -4 -13 11 -15 51 -3 62 -13 73 -43 49z"/>
<path d="M2862 1116 c-12 -7 -19 -15 -15 -20 4 -4 8 -30 9 -57 3 -57 4 -61 22
-50 9 5 12 28 10 74 -3 65 -3 65 -26 53z"/>
<path d="M1943 1113 c-7 -2 -9 -11 -6 -20 4 -9 -1 -21 -12 -29 -23 -17 -12
-18 18 -3 22 12 37 28 37 40 0 10 -23 17 -37 12z"/>
<path d="M2420 1058 c-24 -40 -25 -61 -4 -82 21 -21 37 -20 65 5 13 11 17 17
9 13 -26 -14 -40 -13 -50 6 -8 15 -5 19 18 25 65 16 77 65 16 65 -28 0 -38 -6
-54 -32z m70 7 c0 -12 -28 -35 -44 -35 -11 0 -6 26 6 38 17 17 38 15 38 -3z"/>
<path d="M3030 1056 c0 -14 24 -29 33 -19 3 3 3 11 0 19 -7 18 -33 18 -33 0z"/>
<path d="M2666 1014 c-9 -24 -2 -26 12 -4 7 11 8 20 3 20 -5 0 -12 -7 -15 -16z"/>
<path d="M2645 970 c-3 -5 1 -10 10 -10 9 0 13 5 10 10 -3 6 -8 10 -10 10 -2
0 -7 -4 -10 -10z"/>
</g>
</svg>
